<?xml version="1.0" encoding="UTF-8"?>
<svg width="34px" height="34px" viewBox="0 0 34 34" version="1.1" xmlns="http://www.w3.org/2000/svg" xmlns:xlink="http://www.w3.org/1999/xlink">
    <!-- Generator: Sketch 51.2 (57519) - http://www.bohemiancoding.com/sketch -->
    <title>Fill 34</title>
    <desc>Created with Sketch.</desc>
    <defs></defs>
    <g id="Symbols" stroke="none" stroke-width="1" fill="none" fill-rule="evenodd">
        <g id="Images/Web" fill="#FFFFFF">
            <path d="M21.42,33.343902 C21.5662,33.187502 21.7124,33.034502 21.8552,32.878102 C22.55798,32.080122 23.16284,31.201222 23.6572,30.260102 C24.33108,28.990542 24.87202,27.655702 25.2722,26.275302 C25.27356,26.186902 25.34598,26.116522 25.43438,26.117882 C25.44628,26.117882 25.45784,26.119582 25.4694,26.122302 L31.28,26.122302 C30.15392,27.887242 28.71198,29.429482 27.0266,30.671502 C25.34496,31.911142 23.44198,32.817922 21.42,33.343902 Z M17.713864,9.190302 L24.218404,9.190302 C24.788244,11.493122 25.097304,13.852722 25.139804,16.224902 L17.713864,16.224902 L17.713864,9.190302 Z M8.84,17.656098 L16.2792,17.656098 L16.2792,24.694098 L9.8872,24.694098 C9.82464,24.707358 9.76344,24.667578 9.75018,24.605018 C9.74882,24.599918 9.74814,24.594138 9.7478,24.589038 C9.47104,23.480638 9.26194,22.356598 9.1222,21.222698 C9.0304,20.471298 8.976,19.719898 8.9148,18.965438 C8.8808,18.557098 8.874,18.145698 8.8536,17.737698 C8.84,17.713898 8.84,17.690438 8.84,17.656098 Z M8.874034,16.224868 L8.874034,15.524468 C8.945434,14.606468 9.010034,13.685068 9.108634,12.770468 C9.243614,11.591348 9.457134,10.422428 9.747834,9.271868 C9.749194,9.222908 9.789654,9.184488 9.838614,9.185848 C9.842354,9.185848 9.846094,9.186188 9.849834,9.186868 L16.231634,9.186868 L16.279234,9.186868 L16.279234,16.224868 L8.874034,16.224868 Z M25.119166,17.659736 L25.119166,18.339736 C25.047766,19.261136 24.979766,20.185936 24.884906,21.107336 C24.748226,22.285096 24.533686,23.452996 24.241966,24.602536 C24.240606,24.651156 24.200146,24.689916 24.151186,24.688556 C24.147786,24.688556 24.143706,24.687876 24.139966,24.687536 L17.758506,24.687536 L17.710566,24.687536 L17.710566,17.659736 L25.119166,17.659736 Z M8.285834,9.193634 C7.758834,11.501554 7.474934,13.858094 7.439234,16.224834 L3.4e-05,16.224834 C3.4e-05,16.027634 3.4e-05,15.837234 0.030634,15.646834 C0.198934,13.425274 0.804474,11.258794 1.812234,9.271834 C1.835014,9.214374 1.893494,9.179354 1.955034,9.186834 L8.285834,9.186834 L8.285834,9.193634 Z M0,17.656098 L7.4392,17.656098 C7.47592,20.025558 7.76084,22.384138 8.2892,24.694098 L1.9754,24.694098 C1.89958,24.701918 1.82784,24.657038 1.802,24.585638 C1.12914,23.241958 0.6375,21.814978 0.34,20.342098 C0.1598,19.499238 0.04624,18.642778 0,17.781898 L0,17.656098 Z M34,16.2282 L26.554,16.2282 C26.5183,13.85874 26.23338,11.49982 25.704,9.1902 L32.0178,9.1902 C32.09464,9.18306 32.16604,9.2293 32.1912,9.3024 C33.24418,11.38762 33.85448,13.668 33.983,16.0004 C34,16.0684 34,16.1432 34,16.2282 Z M34,17.656098 C33.9728,18.019898 33.9524,18.373498 33.915,18.724038 C33.83952,19.449598 33.71712,20.169718 33.5478,20.879298 C33.24248,22.175038 32.7862,23.430318 32.1878,24.619298 C32.1708,24.671658 32.12014,24.705318 32.0654,24.701238 L25.704,24.701238 C26.23406,22.389238 26.51898,20.027938 26.554,17.656098 L34,17.656098 Z M16.279166,33.884468 C15.482886,33.714468 14.741686,33.347268 14.123566,32.816868 C13.447306,32.249068 12.857406,31.586068 12.372566,30.848268 C11.453206,29.443388 10.735466,27.916788 10.240766,26.312328 L10.199966,26.146068 L16.279166,26.146068 L16.279166,33.884468 Z M17.707234,33.884468 L17.707234,26.146068 L23.800034,26.146068 L23.725234,26.380668 C23.363134,27.518308 22.896314,28.620248 22.331234,29.671868 C21.744054,30.813248 20.956614,31.839028 20.005634,32.701268 C19.357594,33.291848 18.564374,33.700188 17.707234,33.884468 Z M16.279166,0 L16.279166,7.7418 L10.199966,7.7418 C10.199966,7.7078 10.199966,7.6806 10.223766,7.6534 C10.661006,6.2339 11.264506,4.87118 12.022366,3.5938 C12.592206,2.60474 13.333406,1.72516 14.211966,0.9962 C14.810366,0.50184 15.519606,0.1598 16.279166,0 Z M23.8,7.7418 L17.714,7.7418 L17.714,0.0034 C18.13356,0.08432 18.53816,0.22882 18.9142,0.4318 C19.71286,0.87482 20.41564,1.47254 20.9814,2.1896 C21.87866,3.30548 22.5998,4.55158 23.12,5.8854 C23.358,6.4634 23.5552,7.0584 23.7694,7.6466 C23.8,7.6704 23.8,7.6976 23.8,7.7418 Z M12.563068,0.540566 C12.416868,0.696966 12.270668,0.849966 12.127868,1.009766 C11.417268,1.816246 10.806628,2.705686 10.308868,3.658366 C9.642468,4.919766 9.106968,6.245766 8.710868,7.615966 C8.698628,7.701646 8.619748,7.761146 8.534068,7.749246 C8.533048,7.748906 8.532028,7.748906 8.530668,7.748566 L2.686068,7.748566 C4.973928,4.209846 8.483068,1.635706 12.546068,0.516766 L12.563068,0.540566 Z M2.682634,26.122234 L8.537434,26.122234 C8.618694,26.108634 8.696214,26.163374 8.709814,26.244634 C8.710154,26.247014 8.710494,26.249054 8.710834,26.251434 C9.110674,27.635574 9.652974,28.974494 10.329234,30.246434 C10.903834,31.351434 11.635514,32.367354 12.501834,33.262234 L12.552834,33.320034 C12.554874,33.334654 12.554874,33.349614 12.552834,33.364234 C8.485074,32.243934 4.971854,29.666054 2.682634,26.122234 Z M31.296932,7.762234 L25.462532,7.762234 C25.377532,7.776174 25.296952,7.718374 25.283012,7.633374 C25.283012,7.632014 25.282672,7.630654 25.282672,7.629634 C24.886572,6.259434 24.351072,4.933094 23.684332,3.672034 C23.104632,2.553774 22.364792,1.526294 21.487932,0.622234 C21.458352,0.598774 21.435232,0.568174 21.419932,0.533834 C22.762592,0.882674 24.055272,1.402534 25.265332,2.080834 C26.481512,2.760154 27.609292,3.585334 28.624872,4.539034 C29.642832,5.501234 30.540092,6.583454 31.296932,7.762234 Z" id="Fill-34"></path>
        </g>
    </g>
</svg>