<?xml version="1.0" encoding="UTF-8"?>
<svg width="20px" height="20px" viewBox="0 0 20 20" version="1.1" xmlns="http://www.w3.org/2000/svg" xmlns:xlink="http://www.w3.org/1999/xlink">
    <!-- Generator: Sketch 51.1 (57501) - http://www.bohemiancoding.com/sketch -->
    <title>Icons/Small/Search Sm Grey</title>
    <desc>Created with Sketch.</desc>
    <defs></defs>
    <g id="Icons/Small/Search-Sm-Grey" stroke="none" stroke-width="1" fill="none" fill-rule="evenodd">
        <path d="M9.15464095,11.3495594 C7.83299104,10.1188699 7.83686117,8.11184375 9.15464095,6.87733784 C10.4760759,5.64644748 12.6205587,5.64644748 13.9417786,6.87733784 C15.2595584,8.11184375 15.2595584,10.1152544 13.9417786,11.3495594 C12.6205587,12.5804498 10.4760759,12.5804498 9.15464095,11.3495594 M19.4760667,14.2620774 L16.4887552,11.4712826 C17.5532563,9.52351109 17.2161249,7.07639339 15.4726306,5.44719108 C13.3072921,3.42851481 9.78955752,3.42851481 7.62400394,5.44719108 C5.45866535,7.4704872 5.45866535,10.756611 7.62400394,12.7795053 C9.46941164,14.5073315 12.305143,14.7541925 14.4433907,13.530935 L17.3509345,16.2470087 C17.9763907,16.8315209 18.9241429,16.9008187 19.4586511,16.4012717 L19.6411923,16.2309396 C20.1711853,15.7313926 20.0970078,14.8457862 19.4760667,14.2620774" id="Fill-1" fill="#696767"></path>
    </g>
</svg>