<?xml version="1.0" encoding="UTF-8"?>
<svg width="30px" height="30px" viewBox="0 0 30 30" version="1.1" xmlns="http://www.w3.org/2000/svg" xmlns:xlink="http://www.w3.org/1999/xlink">
    <!-- Generator: Sketch 51.1 (57501) - http://www.bohemiancoding.com/sketch -->
    <title>Icons/Minis/Card</title>
    <desc>Created with Sketch.</desc>
    <defs></defs>
    <g id="Icons/Minis/Card" stroke="none" stroke-width="1" fill="none" fill-rule="evenodd">
        <path d="M4.34917518,10.9881486 L8.65239592,10.9881486 C8.84406913,10.9881486 9,11.1342317 9,11.3156275 L9,14.6591829 C9,14.8409504 8.84406913,14.9881486 8.65239592,14.9881486 L4.34917518,14.9881486 C4.15750196,14.9881486 4,14.8409504 4,14.6591829 L4,11.3156275 C4.00039277,11.1342317 4.15750196,10.9881486 4.34917518,10.9881486 M4.22596395,20.9881486 C4.05266267,20.9881486 3.91008298,20.7643606 3.91008298,20.489276 C3.91008298,20.2141915 4.05266267,19.9881486 4.22596395,19.9881486 L8.71446713,19.9881486 C8.88776841,19.9881486 9.0303481,20.2141915 9.0303481,20.489276 C9.0303481,20.7643606 8.88776841,20.9881486 8.71446713,20.9881486 L4.22596395,20.9881486 Z M22.2917166,20.9881486 C22.1184153,20.9881486 21.9774111,20.7643606 21.9774111,20.489276 C21.9774111,20.2119367 22.1184153,19.9881486 22.2917166,19.9881486 L26.7814014,19.9881486 C26.9562781,19.9881486 27.0976762,20.2119367 27.0976762,20.489276 C27.0976762,20.7643606 26.9562781,20.9881486 26.7814014,20.9881486 L22.2917166,20.9881486 Z M16.2694971,20.9881486 C16.0961958,20.9881486 15.9551916,20.7643606 15.9551916,20.489276 C15.9551916,20.2141915 16.0961958,19.9881486 16.2694971,19.9881486 L20.7599696,19.9881486 C20.9340586,19.9881486 21.0754567,20.2141915 21.0754567,20.489276 C21.0754567,20.7643606 20.9340586,20.9881486 20.7599696,20.9881486 L16.2694971,20.9881486 Z M10.2468443,20.9881486 C10.0727553,20.9881486 9.93253881,20.7643606 9.93253881,20.489276 C9.93253881,20.2141915 10.0727553,19.9881486 10.2468443,19.9881486 L14.7381046,19.9881486 C14.9114058,19.9881486 15.0528039,20.2141915 15.0528039,20.489276 C15.0528039,20.7643606 14.9114058,20.9881486 14.7381046,20.9881486 L10.2468443,20.9881486 Z M2.93469238,23.0154924 L28.0149045,23.0154924 C28.2807644,23.0154924 28.5324452,22.9111177 28.7238643,22.7208802 C28.9113448,22.532612 29.0161133,22.2805374 29.0161133,22.0138897 L29.0161133,7.95042888 C29.0161133,7.69559723 28.9231608,7.4557325 28.7534043,7.27179682 C28.5332329,7.05241316 28.281946,6.94803852 28.0149045,6.94803852 L2.93469238,6.94803852 C2.667257,6.94803852 2.41597014,7.05241316 2.22612646,7.24186297 C2.03628279,7.43210051 1.93151429,7.6841751 1.93151429,7.95042888 L1.93151429,22.0138897 C1.93151429,22.2663582 2.02486066,22.5054352 2.19619261,22.6921279 C2.41439467,22.9119055 2.66568153,23.0154924 2.93469238,23.0154924 Z M2.79091119,24 C2.36829238,24 1.97009331,23.8574458 1.65145527,23.5957069 L1.52344864,23.4808067 C1.18590501,23.1454538 1,22.701043 1,22.2305362 L1,7.77024278 C1,7.29934652 1.18629888,6.85493573 1.52502411,6.51841433 C1.8641432,6.18384039 2.31354493,6 2.79091119,6 L28.2110581,6 C28.630526,6 29.0287251,6.1425542 29.3489386,6.40429307 L29.4773391,6.51802484 C29.814095,6.8514303 30,7.29623058 30,7.77024278 L30,22.2305362 C30,22.7014325 29.814095,23.1454538 29.4765514,23.4808067 C29.1354629,23.8165491 28.6864551,24 28.2110581,24 L2.79091119,24 Z" id="Fill-12" fill="#000000"></path>
    </g>
</svg>