<?xml version="1.0" encoding="UTF-8"?>
<svg width="30px" height="30px" viewBox="0 0 30 30" version="1.1" xmlns="http://www.w3.org/2000/svg" xmlns:xlink="http://www.w3.org/1999/xlink">
    <!-- Generator: Sketch 51.1 (57501) - http://www.bohemiancoding.com/sketch -->
    <title>Icons/Minis/Email</title>
    <desc>Created with Sketch.</desc>
    <defs></defs>
    <g id="Icons/Minis/Email" stroke="none" stroke-width="1" fill="none" fill-rule="evenodd">
        <path d="M1.17599366,5.00463867 C0.532656122,5.00463867 0.0112304687,5.52086364 0.0112304687,6.15778453 L0.0112304687,22.8514928 C0.0112304687,23.4880293 0.532656122,24.0046387 1.17599366,24.0046387 L20.2004591,24.0046387 C19.9294575,23.6460103 19.6992226,23.2593221 19.5132488,22.8514928 L1.00036621,22.8514928 L1.00036621,6.99133301 L14.8347833,18.3461914 C14.9376707,18.4215303 15.0778306,18.4215303 15.1803297,18.3461914 L29.0170898,6.99133301 L29.0170898,15.4098582 C29.4515465,15.7235138 29.6614422,16.0917518 30,16.5049624 L30,6.15778453 C30,5.52086364 29.4785743,5.00463867 28.8352368,5.00463867 L1.17599366,5.00463867 Z M25.7063685,20.9057069 C25.7072229,21.3705438 25.5816144,21.8268358 25.3427874,22.2258778 C25.1419847,22.4929026 24.8228366,22.6445728 24.4883079,22.6317556 C23.7568734,22.6317556 23.3907289,22.1814448 23.3907289,21.2816779 C23.3578314,20.7899249 23.5099288,20.303726 23.8179687,19.918783 C24.1298537,19.5795546 24.5750375,19.3937053 25.035602,19.4103677 C25.2821194,19.4069498 25.5286367,19.4300207 25.7700272,19.478726 L25.7063685,20.9057069 Z M27.5990407,16.4196893 C26.8206098,16.0257742 25.9584399,15.8279622 25.0868708,15.8429156 C24.0572229,15.8224081 23.039965,16.0744795 22.1384891,16.5734956 C21.3010992,17.0447411 20.6166611,17.7458415 20.1646414,18.5943397 C19.7027952,19.4727447 19.4678133,20.4519782 19.481485,21.444029 C19.481485,22.9620119 19.9339319,24.147175 20.8396802,24.9986639 C21.7454285,25.8501528 23.0074948,26.2773925 24.6254518,26.2803832 C25.6666352,26.2944821 26.7001282,26.0966701 27.6631266,25.6993371 L27.6631266,24.4688866 C27.1431758,24.6555904 26.6086989,24.7987157 26.0652499,24.8961264 C25.5734969,24.9914008 25.0744808,25.0413879 24.5741831,25.0456603 C23.3809024,25.0456603 22.4708817,24.7307846 21.8441209,24.1014604 C21.1750634,23.3657535 20.8341261,22.3895106 20.899921,21.3970326 C20.8832587,20.5968125 21.0575725,19.80471 21.4079091,19.0856655 C21.7279117,18.4392517 22.238036,17.9056292 22.8690691,17.5561471 C23.5590614,17.1895753 24.3315109,17.007144 25.1120779,17.0263698 C25.7298666,17.0182522 26.3391106,17.1652227 26.8855502,17.4536095 C27.398238,17.7257613 27.8177874,18.1453107 28.0903664,18.6584257 C28.3843074,19.2193915 28.5308506,19.845725 28.5176062,20.4784671 C28.5359775,21.0103806 28.4535202,21.5410124 28.2740795,22.0421647 C28.2010215,22.3643035 27.9280153,22.6031305 27.5990407,22.6317556 C27.2743384,22.6317556 27.1119873,22.3356784 27.1119873,21.7430968 L27.2572488,18.6199741 C26.9017853,18.5054738 26.5369226,18.4213076 26.1677874,18.3679026 C25.7683182,18.3003988 25.3637222,18.2649379 24.9586989,18.2610927 C24.1319899,18.2252046 23.3257885,18.5221362 22.7199625,19.0856655 C22.1397708,19.656885 21.8295948,20.4472786 21.8654829,21.2603159 C21.8257496,21.9438995 22.0611587,22.6142387 22.5191598,23.1230813 C22.9908325,23.5904816 23.6372462,23.8374262 24.3007496,23.8023925 C24.9826243,23.815637 25.6311743,23.511015 26.0562778,22.9778198 L26.1592426,22.9778198 C26.2664798,23.2281823 26.4501929,23.4375298 26.6847475,23.5759555 C26.9415186,23.7327525 27.2384503,23.8113646 27.5392271,23.8023925 C27.9925285,23.8117918 28.4342944,23.6601217 28.7867672,23.3751528 C29.1640199,23.0568591 29.4498433,22.6437183 29.6151851,22.1788814 C29.8168423,21.6409865 29.9163892,21.0701942 29.9104078,20.4955567 C29.9287791,19.6380865 29.7207134,18.79087 29.3079997,18.038928 C28.909385,17.3429544 28.3150945,16.7802796 27.5990407,16.4196893 Z M15.0056152,17.085083 L1.94604492,5.98120117 L28.0787354,5.98120117 L15.0056152,17.085083 Z" id="Fill-1" fill="#000000"></path>
    </g>
</svg>