<?xml version="1.0" encoding="UTF-8"?>
<svg width="32px" height="26px" viewBox="0 0 32 26" version="1.1" xmlns="http://www.w3.org/2000/svg" xmlns:xlink="http://www.w3.org/1999/xlink">
    <!-- Generator: Sketch 51.1 (57501) - http://www.bohemiancoding.com/sketch -->
    <title>Icons/Medium/Volume</title>
    <desc>Created with Sketch.</desc>
    <defs>
        <path d="M20.9304348,10.9680261 C20.9304348,9.2856138 20.0034435,7.75997839 18.5307478,6.93493985 C18.1696348,6.73210971 17.7066435,6.85165211 17.4978435,7.20342032 C17.2890435,7.55518854 17.413113,8.00494233 17.7752348,8.20777247 C18.7839304,8.77314924 19.4173913,9.81669562 19.4173913,10.9680261 C19.4173913,12.1036789 18.8010783,13.135467 17.8135652,13.706723 C17.4544696,13.9144524 17.3364522,14.365186 17.5502957,14.7140147 C17.7641391,15.0628433 18.2281391,15.1774864 18.5872348,14.969757 C20.0276522,14.1358998 20.9304348,12.6269219 20.9304348,10.9680261 M24.9652174,10.9680261 C24.9652174,7.87168195 23.2615304,5.06341536 20.5521739,3.54071952 C20.1910609,3.33788938 19.7280696,3.45841164 19.5182609,3.8092 C19.3094609,4.16096821 19.4335304,4.610722 19.7946435,4.81355214 C22.0410087,6.07560635 23.4521739,8.40178391 23.4521739,10.9680261 C23.4521739,13.5303489 22.0440348,15.8535869 19.8037217,17.116621 C19.4416,17.320431 19.3185391,17.7701848 19.5283478,18.121953 C19.7381565,18.4727413 20.2011478,18.5922837 20.5632696,18.3884737 C23.2645565,16.8657779 24.9652174,14.059471 24.9652174,10.9680261 M29,10.9680261 C29,6.45579038 26.5155826,2.36293291 22.5675478,0.145519337 C22.2064348,-0.0573108036 21.7434435,0.0622315982 21.5346435,0.413999813 C21.3248348,0.764788173 21.4489043,1.21454196 21.8100174,1.4173721 C25.2950609,3.3751239 27.4869565,6.98589235 27.4869565,10.9680261 C27.4869565,14.9403613 25.3061565,18.5432909 21.8352348,20.5039823 C21.4741217,20.7077923 21.3510609,21.1575461 21.5618783,21.5093143 C21.771687,21.8601027 22.2346783,21.9786652 22.5957913,21.7748552 C26.5286957,19.5535222 29,15.4694835 29,10.9680261 M5.89582609,5.54158497 L14.4293913,0.267021451 C15.3735304,-0.316972578 16.1391304,0.0886877035 16.1391304,1.17436788 L16.1391304,20.7616844 C16.1391304,21.8473645 15.3412522,22.3029975 14.3688696,21.7885732 L5.93213913,17.3174914 C5.44191304,17.0578296 5.04347826,16.4111248 5.04347826,15.8722042 L5.04347826,7.04468369 C5.04347826,6.50576303 5.42476522,5.83260213 5.89582609,5.54158497 M1.01777391,6.06874736 L3.0170087,6.06874736 C3.57885217,6.06874736 4.03478261,6.50478317 4.03478261,7.04468369 L4.03478261,14.8923484 C4.03478261,15.4312691 3.58793043,15.8673049 3.0170087,15.8673049 L1.01777391,15.8673049 C0.455930435,15.8673049 0,15.4312691 0,14.8923484 L0,7.04468369 C0,6.50576303 0.446852174,6.06874736 1.01777391,6.06874736" id="path-1"></path>
        <filter x="-24.1%" y="-22.7%" width="148.3%" height="163.6%" filterUnits="objectBoundingBox" id="filter-2">
            <feOffset dx="0" dy="2" in="SourceAlpha" result="shadowOffsetOuter1"></feOffset>
            <feGaussianBlur stdDeviation="2" in="shadowOffsetOuter1" result="shadowBlurOuter1"></feGaussianBlur>
            <feColorMatrix values="0 0 0 0 0   0 0 0 0 0   0 0 0 0 0  0 0 0 0.2 0" type="matrix" in="shadowBlurOuter1"></feColorMatrix>
        </filter>
    </defs>
    <g id="Icons/Medium/Volume" stroke="none" stroke-width="1" fill="none" fill-rule="evenodd">
        <g id="Fill-1">
            <use fill="black" fill-opacity="1" filter="url(#filter-2)" xlink:href="#path-1"></use>
            <use fill="#FFFFFF" fill-rule="evenodd" xlink:href="#path-1"></use>
        </g>
    </g>
</svg>