<?xml version="1.0" encoding="UTF-8"?>
<svg width="18px" height="18px" viewBox="0 0 18 18" version="1.1" xmlns="http://www.w3.org/2000/svg" xmlns:xlink="http://www.w3.org/1999/xlink">
    <!-- Generator: Sketch 51.1 (57501) - http://www.bohemiancoding.com/sketch -->
    <title>Icons/Misc/Tool</title>
    <desc>Created with Sketch.</desc>
    <defs></defs>
    <g id="Icons/Misc/Tool" stroke="none" stroke-width="1" fill="none" fill-rule="evenodd">
        <path d="M14.5282684,0.30316803 C12.687139,-0.350292522 10.5559994,0.0507455541 9.0825482,1.52445468 C7.60884809,2.99791488 7.20781247,5.12881862 7.86126902,6.97020822 L0.658310801,14.1732105 C-0.219436934,15.0509636 -0.219436934,16.4639321 0.658310801,17.3416852 C1.53605853,18.2194383 2.9490183,18.2194383 3.82676604,17.3416852 L11.0297243,10.1386829 C12.8711026,10.7923923 15.0019933,10.3908564 16.4754445,8.9173962 C17.9491446,7.44393601 18.3504291,5.31303226 17.6967236,3.47164266 L15.5954563,5.57292286 C14.7177086,6.45067597 13.3044999,6.45067597 12.4270011,5.57292286 C11.5492533,4.69541869 11.5492533,3.28220134 12.4270011,2.40444823 L14.5282684,0.30316803 Z" id="Fill-1" stroke="#FF9900" stroke-width="2"></path>
    </g>
</svg>