<?xml version="1.0" encoding="UTF-8"?>
<svg width="24px" height="24px" viewBox="0 0 24 24" version="1.1" xmlns="http://www.w3.org/2000/svg" xmlns:xlink="http://www.w3.org/1999/xlink">
    <!-- Generator: Sketch 51.1 (57501) - http://www.bohemiancoding.com/sketch -->
    <title>Icons/Medium/Search Grey</title>
    <desc>Created with Sketch.</desc>
    <defs></defs>
    <g id="Icons/Medium/Search-Grey" stroke="none" stroke-width="1" fill="none" fill-rule="evenodd">
        <path d="M10.0562963,13.5361143 C8.35689412,11.9536707 8.36187041,9.37299893 10.0562963,7.78564818 C11.755422,6.20294635 14.5128381,6.20294635 16.2116873,7.78564818 C17.9061132,9.37299893 17.9061132,11.9490218 16.2116873,13.5361143 C14.5128381,15.1188161 11.755422,15.1188161 10.0562963,13.5361143 M23.3277783,17.2810843 L19.4866374,13.6926282 C20.8553929,11.1881472 20.4219029,8.04159751 18.1800855,5.94673874 C15.3958527,3.35108709 10.8726839,3.35108709 8.0881746,5.94673874 C5.3039418,8.5483307 5.3039418,12.77369 8.0881746,15.3747654 C10.4610343,17.5964366 14.1072707,17.9138551 16.8566695,16.3409677 L20.5952436,19.833346 C21.3994669,20.5849227 22.6181044,20.6740272 23.305385,20.0317003 L23.5400999,19.8126841 C24.2215748,19.1703571 24.126196,18.031628 23.3277783,17.2810843" id="Fill-1" fill="#696767"></path>
    </g>
</svg>