<?xml version="1.0" encoding="UTF-8"?>
<svg width="18px" height="18px" viewBox="0 0 18 18" version="1.1" xmlns="http://www.w3.org/2000/svg" xmlns:xlink="http://www.w3.org/1999/xlink">
    <!-- Generator: sketchtool 51.1 (57501) - http://www.bohemiancoding.com/sketch -->
    <title>A9628238-EC9F-4D99-9F98-B471224F8D93</title>
    <desc>Created with sketchtool.</desc>
    <defs></defs>
    <g id="Page-1" stroke="none" stroke-width="1" fill="none" fill-rule="evenodd">
        <g id="1.0-Web-Home-Copy-2" transform="translate(-1142.000000, -27.000000)" fill="#696767">
            <g id="Top-Bar">
                <g id="Search" transform="translate(1130.000000, 19.000000)">
                    <g id="Icons/Medium/Search-Grey" transform="translate(10.000000, 7.000000)">
                        <path d="M6.05629627,11.4977155 C4.35689412,9.91527197 4.36187041,7.33460019 6.05629627,5.74724943 C7.75542196,4.16454761 10.5128381,4.16454761 12.2116873,5.74724943 C13.9061132,7.33460019 13.9061132,9.91062304 12.2116873,11.4977155 C10.5128381,13.0804173 7.75542196,13.0804173 6.05629627,11.4977155 M19.3277783,15.2426856 L15.4866374,11.6542294 C16.8553929,9.14974843 16.4219029,6.00319877 14.1800855,3.90834 C11.3958527,1.31268834 6.87268387,1.31268834 4.0881746,3.90834 C1.3039418,6.50993196 1.3039418,10.7352913 4.0881746,13.3363667 C6.46103431,15.5580379 10.1072707,15.8754564 12.8566695,14.302569 L16.5952436,17.7949472 C17.3994669,18.546524 18.6181044,18.6356284 19.305385,17.9933015 L19.5400999,17.7742853 C20.2215748,17.1319584 20.126196,15.9932292 19.3277783,15.2426856" id="Fill-1"></path>
                    </g>
                </g>
            </g>
        </g>
    </g>
</svg>