<?xml version="1.0" encoding="UTF-8"?>
<svg width="18px" height="18px" viewBox="0 0 18 18" version="1.1" xmlns="http://www.w3.org/2000/svg" xmlns:xlink="http://www.w3.org/1999/xlink">
    <!-- Generator: Sketch 51.1 (57501) - http://www.bohemiancoding.com/sketch -->
    <title>Icons/Misc/CircleCheck</title>
    <desc>Created with Sketch.</desc>
    <defs></defs>
    <g id="Icons/Misc/CircleCheck" stroke="none" stroke-width="1" fill="none" fill-rule="evenodd">
        <g id="Group-6" fill="#FF9900">
            <path d="M13.7576828,6.22100652 C13.4209461,5.93811332 12.89895,5.91477987 12.5665442,6.22100652 C12.01932,6.72496923 11.4742612,7.22693763 10.9270369,7.73080063 C10.0589924,8.53032042 9.18867405,9.33183453 8.32052124,10.1313543 C7.79267826,9.64384468 7.26483529,9.15633505 6.73699232,8.66882541 C6.63607957,8.57389615 6.53289304,8.48086148 6.43187201,8.38593221 C6.12047173,8.09905039 5.54801926,8.07771125 5.24073344,8.38593221 C4.93139039,8.69604777 4.90832771,9.17478244 5.24073344,9.48290368 C5.96682882,10.1534912 6.69281592,10.8240787 7.4189113,11.4946662 C7.51993233,11.5895955 7.62301058,11.6826301 7.72403161,11.7776591 C8.04604289,12.0741136 8.59326717,12.0741136 8.91517018,11.7776591 C9.46239446,11.2736964 10.0074532,10.771728 10.5545692,10.2677653 C11.4236965,9.46734805 12.2949893,8.66503622 13.1642249,7.86451927 L13.7576828,7.31797799 C14.0690831,7.03119588 14.092254,6.50399943 13.7576828,6.22100652" id="Fill-4"></path>
            <path d="M16.2694393,9.97781786 C16.1757964,10.611675 16.0081179,11.2331036 15.7694036,11.8291393 C15.5129036,12.4172464 15.189975,12.9746036 14.8035107,13.4870679 C14.4151179,13.973175 13.9733679,14.4153536 13.4875821,14.804175 C12.9715821,15.1910679 12.4135821,15.5172107 11.8231179,15.7748893 C11.2272964,16.0133893 10.6062964,16.1809607 9.97265357,16.2746036 C9.325725,16.349925 8.67290357,16.349925 8.025975,16.2746036 C7.39211786,16.1809607 6.77068929,16.0132821 6.17454643,15.7745679 C5.58643929,15.5180679 5.02908214,15.1950321 4.51661786,14.8085679 C4.03061786,14.420175 3.58843929,13.978425 3.19961786,13.4927464 C2.81261786,12.9767464 2.486475,12.4186393 2.22879643,11.8282821 C1.99040357,11.2323536 1.82283214,10.6113536 1.72918929,9.97781786 C1.65376071,9.33078214 1.65376071,8.67806786 1.72918929,8.03103214 C1.82283214,7.397175 1.99040357,6.77574643 2.22911786,6.17971071 C2.485725,5.59160357 2.80876071,5.03413929 3.195225,4.52156786 C3.58361786,4.03556786 4.02536786,3.59349643 4.51093929,3.20478214 C5.02693929,2.81778214 5.58504643,2.49163929 6.17551071,2.23396071 C6.77133214,1.99546071 7.39233214,1.82799643 8.025975,1.73435357 C8.67290357,1.658925 9.325725,1.658925 9.97265357,1.73435357 C10.6065107,1.82799643 11.2279393,1.995675 11.8240821,2.23428214 C12.4110107,2.49035357 12.9674036,2.81263929 13.4791179,3.19813929 C13.7240464,3.39399643 13.9583679,3.60099643 14.1805821,3.82321071 C14.4010821,4.04371071 14.606475,4.27610357 14.8011536,4.51899643 C15.1870821,5.03424643 15.5126893,5.59128214 15.7698321,6.180675 C16.008225,6.77649643 16.1757964,7.39749643 16.2694393,8.03103214 C16.3448679,8.67806786 16.3448679,9.33078214 16.2694393,9.97781786 M17.9914393,8.81906786 C17.9498679,7.01778214 17.3708679,5.21221071 16.3005107,3.75656786 C16.0110107,3.36506786 15.7028679,2.98813929 15.3592607,2.64453214 C14.0639036,1.35538929 12.3666536,0.449603571 10.5590464,0.149710714 C9.68026071,0.00388928571 8.79729643,-0.0335035714 7.91229643,0.080925 C7.42908214,0.143389286 6.95218929,0.228889286 6.48365357,0.366246429 C6.02551071,0.499532143 5.57776071,0.676532143 5.14458214,0.876460714 C3.47240357,1.65121071 2.04590357,2.99853214 1.14836786,4.604175 C0.273653571,6.170175 -0.136596429,8.01731786 0.0404035714,9.806175 C0.132117857,10.7370321 0.346617857,11.6303893 0.708975,12.4925679 C1.07968929,13.3713536 1.57736786,14.1690321 2.20008214,14.8957821 C3.393225,16.2909964 5.04879643,17.303175 6.83143929,17.7383893 C8.56618929,18.1610679 10.442475,18.0778179 12.1167964,17.442675 C12.5665821,17.2718893 13.005975,17.0761393 13.4245821,16.8387107 C13.855725,16.5950679 14.255475,16.3098536 14.6427964,16.0036393 C15.3780107,15.4226036 16.0068321,14.7124607 16.5232607,13.9357821 C17.5166893,12.4404964 18.0331179,10.6141393 17.9914393,8.81906786" id="Fill-1"></path>
        </g>
    </g>
</svg>