<?xml version="1.0" encoding="UTF-8"?>
<svg width="20px" height="19px" viewBox="0 0 20 19" version="1.1" xmlns="http://www.w3.org/2000/svg" xmlns:xlink="http://www.w3.org/1999/xlink">
    <!-- Generator: Sketch 51.1 (57501) - http://www.bohemiancoding.com/sketch -->
    <title>Icons/Misc/Find</title>
    <desc>Created with Sketch.</desc>
    <defs></defs>
    <g id="Icons/Misc/Find" stroke="none" stroke-width="1" fill="none" fill-rule="evenodd">
        <path d="M4.50827661,10.5986935 C2.61951542,8.83992323 2.6250462,5.97169531 4.50827661,4.20747105 C6.39673053,2.44841374 9.46139689,2.44841374 11.3495435,4.20747105 C13.232774,5.97169531 13.232774,8.83475629 11.3495435,10.5986935 C9.46139689,12.3577508 6.39673053,12.3577508 4.50827661,10.5986935 M19.2585582,14.7609538 L14.989411,10.7726473 C16.5106826,7.98909982 16.0288902,4.49194001 13.5372741,2.16365772 C10.442803,-0.721219241 5.41563171,-0.721219241 2.32085333,2.16365772 C-0.773617778,5.05513689 -0.773617778,9.75131471 2.32085333,12.6422198 C4.95811334,15.1114448 9.01063836,15.4642323 12.066394,13.7160829 L16.2215457,17.5976059 C17.1153811,18.4329285 18.4698076,18.5319616 19.2336697,17.8180622 L19.4945381,17.5746418 C20.2519476,16.8607423 20.145941,15.5951282 19.2585582,14.7609538" id="Fill-1" fill="#FF9900"></path>
    </g>
</svg>