<?xml version="1.0" encoding="UTF-8"?>
<svg width="48px" height="48px" viewBox="0 0 48 48" version="1.1" xmlns="http://www.w3.org/2000/svg" xmlns:xlink="http://www.w3.org/1999/xlink">
    <!-- Generator: Sketch 51.2 (57519) - http://www.bohemiancoding.com/sketch -->
    <title>Group 3</title>
    <desc>Created with Sketch.</desc>
    <defs></defs>
    <g id="Symbols" stroke="none" stroke-width="1" fill="none" fill-rule="evenodd">
        <g id="Icons/Misc/Gear" fill="#FFFFFF" stroke="#FF9900" stroke-width="2">
            <g id="Group-3" transform="translate(1.000000, 1.000000)">
                <path d="M29.071194,24.2199713 C28.3963295,27.5723096 25.1319282,29.7426124 21.7795899,29.0672367 C18.4277629,28.3928835 16.2574601,25.1279708 16.9318133,21.7761439 C17.5136283,18.8875193 20.0505053,16.8087322 22.9974136,16.8066871 C23.4094899,16.8071984 23.8200325,16.8486105 24.2249512,16.9293898 C27.578312,17.6027205 29.7521936,20.8655881 29.0819305,24.2199713 L29.071194,24.2199713 Z M45.9019055,19.8640278 L45.9019055,19.7668882 C45.8451555,19.2505146 45.4811377,18.8200329 44.9816357,18.6779023 L39.8690259,17.0520924 C39.6568526,16.4549396 39.4129811,15.8695458 39.1379227,15.2984672 L41.7964798,10.7840328 C42.0669369,10.3249204 42.0239909,9.746173 41.689115,9.33205161 L41.6226511,9.25024985 C40.1676023,7.60450076 38.6123464,6.05077864 36.9650636,4.59777493 L36.8883744,4.53642362 C36.4931697,4.21995307 35.9476542,4.1657594 35.4977445,4.39838315 L30.722567,6.87288629 C30.1514885,6.59476032 29.5666059,6.34731001 28.9689418,6.13155787 L27.6601137,1.05984895 C27.5292309,0.550121755 27.0992604,0.172299891 26.5762404,0.10890353 L26.4842135,0.10890353 C24.2781223,-0.0327157618 22.0648736,-0.0362945887 19.8582712,0.09867831 L19.7611316,0.09867831 C19.244758,0.15593954 18.8142762,0.519446096 18.6721457,1.01894807 L17.0412232,6.13155787 C16.4496942,6.34117487 15.869413,6.5819788 15.3029358,6.85243585 L10.7782762,4.18876615 C10.31763,3.91779783 9.73734881,3.96074375 9.32118237,4.29613095 L9.24449322,4.35748227 C7.59823287,5.81662111 6.04399949,7.37750088 4.59201831,9.03040763 L4.53066699,9.10709678 C4.21112888,9.50127899 4.15540143,10.0467945 4.38751391,10.4977266 L6.86712967,15.2831294 C6.58900369,15.8506291 6.34155338,16.4329554 6.12580125,17.0265294 L1.05409233,18.3404701 C0.544365128,18.4713529 0.166543264,18.9018346 0.103146903,19.4243433 L0.103146903,19.5265955 C-0.0343823009,21.7245065 -0.0343823009,23.9290638 0.103146903,26.1269748 L0.103146903,26.2241144 C0.152739218,26.7435555 0.513178209,27.1806837 1.01319145,27.3284381 L6.12580125,28.9598719 C6.33541825,29.5514008 6.57622217,30.1316821 6.84667923,30.697648 L4.18300952,35.2228189 C3.91050742,35.6829538 3.95345334,36.2642575 4.29037433,36.6794014 L4.35172565,36.7566018 C5.8093307,38.4023509 7.36816543,39.956073 9.01953839,41.4085655 L9.09622754,41.4699168 C9.49040975,41.7930337 10.0389928,41.8513175 10.49197,41.6181825 L15.2773728,39.1385667 C15.8448725,39.4151589 16.4271987,39.6605642 17.0207727,39.8747825 L18.3347134,44.9516041 C18.4676413,45.4597975 18.8976118,45.8345518 19.4185867,45.8974369 L19.5208389,45.8974369 C20.2468295,45.9639008 21.5300946,46.0002003 22.8184722,46.0002003 C24.1068499,46.0002003 25.3752884,45.9639008 26.1212182,45.8974369 L26.2183578,45.8974369 C26.7377989,45.8478446 27.174927,45.4879168 27.3226815,44.9873923 L28.9541153,39.8747825 C29.549223,39.6672106 30.1325718,39.4284517 30.7021165,39.1590172 L35.2170623,41.8175743 C35.6756634,42.0880313 36.2544108,42.0450854 36.6685322,41.7102095 L36.7508452,41.6437455 C38.396083,40.187163 39.9498052,38.6303733 41.4028089,36.9810454 L41.4641602,36.9048675 C41.7872771,36.510174 41.8455609,35.9621023 41.6124259,35.5086138 L39.1379227,30.7334362 C39.4129811,30.1623577 39.6568526,29.5774751 39.8690259,28.9803223 L44.9407348,27.6658703 C45.4591535,27.53192 45.8385091,27.0886567 45.8916803,26.556434 L45.8916803,26.464407 C46.0327883,24.2670074 46.0358559,22.06245 45.9019055,19.8640278 Z" id="Fill-1"></path>
            </g>
        </g>
    </g>
</svg>