<?xml version="1.0" encoding="UTF-8"?>
<svg width="31px" height="31px" viewBox="0 0 31 31" version="1.1" xmlns="http://www.w3.org/2000/svg" xmlns:xlink="http://www.w3.org/1999/xlink">
    <!-- Generator: Sketch 51.2 (57519) - http://www.bohemiancoding.com/sketch -->
    <title>Icons/Misc/Gear</title>
    <desc>Created with Sketch.</desc>
    <defs></defs>
    <g id="Icons/Misc/Gear" stroke="none" stroke-width="1" fill="none" fill-rule="evenodd">
        <g id="Group-3" transform="translate(1.000000, 1.000000)" fill="#FFFFFF" stroke="#FF9900" stroke-width="2">
            <path d="M18.3274919,15.2690446 C17.9020338,17.3824662 15.8440417,18.7506948 13.730611,18.3249162 C11.6175027,17.8997823 10.2492683,15.8414766 10.674404,13.7283773 C11.0412005,11.9072957 12.6405359,10.5967616 14.4983694,10.5954723 C14.7581567,10.5957946 15.016977,10.6219022 15.2722518,10.672828 C17.3863271,11.0973173 18.7568177,13.1543337 18.3342605,15.2690446 L18.3274919,15.2690446 Z M28.9381578,12.522918 L28.9381578,12.4616781 C28.9023806,12.1361396 28.6728912,11.8647501 28.3579877,11.7751464 L25.1348207,10.7501837 C25.0010593,10.3737193 24.8473142,10.0046683 24.6739078,9.64464207 L26.3499547,6.7985977 C26.5204602,6.50915853 26.4933856,6.14429758 26.2822682,5.88322216 L26.240367,5.83165171 C25.3230536,4.79411866 24.3425662,3.81460237 23.3040618,2.8985822 L23.2557143,2.85990436 C23.0065635,2.66039117 22.6626516,2.62622574 22.3790129,2.77287922 L19.3685748,4.33288542 C19.0085471,4.15754588 18.6398168,4.00154526 18.2630285,3.86552819 L17.4378978,0.668160108 C17.3553847,0.346811724 17.0843164,0.108620694 16.7545864,0.068653593 L16.6965694,0.068653593 C15.3057728,-0.0206277536 13.9104638,-0.0228839609 12.5193449,0.0622072864 L12.4581047,0.0622072864 C12.1325648,0.0983066035 11.8611742,0.327472804 11.7715701,0.642374882 L10.7433798,3.86552819 C10.3704594,3.99767748 10.0046299,4.149488 9.64750303,4.31999281 L6.79500019,2.64072993 C6.50459284,2.46990281 6.13876338,2.4969773 5.87639758,2.70841615 L5.82805008,2.74709399 C4.79019029,3.66698195 3.8103475,4.65101065 2.89496806,5.69305612 L2.85629006,5.74140341 C2.65484212,5.98990853 2.6197096,6.33381899 2.76604138,6.61810111 L4.3292774,9.63497261 C4.15393711,9.99274263 3.99793583,10.3598598 3.86191818,10.7340679 L0.664536466,11.5624183 C0.343186711,11.644931 0.104994667,11.9163205 0.0650273952,12.2457268 L0.0650273952,12.3101899 C-0.0216757984,13.6958235 -0.0216757984,15.0856472 0.0650273952,16.4712808 L0.0650273952,16.5325207 C0.0962921155,16.8599931 0.323525392,17.1355727 0.63875113,17.2287218 L3.86191818,18.25723 C3.99406803,18.6301489 4.14587919,18.9959768 4.31638473,19.3527798 L2.6371147,22.2055928 C2.4653199,22.4956766 2.4923945,22.8621492 2.70480121,23.1238692 L2.74347921,23.1725388 C3.66240414,24.2100719 4.64514777,25.1895882 5.68623073,26.105286 L5.73457823,26.1439639 C5.98308441,26.3476671 6.32893023,26.3844111 6.61450283,26.2374353 L9.63138719,24.6742059 C9.98915873,24.8485785 10.3562775,25.0032899 10.7304872,25.13834 L11.5588411,28.3389313 C11.6426434,28.6593127 11.9137118,28.8955698 12.2421525,28.9352146 L12.3066158,28.9352146 C12.7643056,28.9771156 13.5733205,29 14.3855586,29 C15.1977967,29 15.9974644,28.9771156 16.4677245,28.9352146 L16.5289647,28.9352146 C16.8564384,28.90395 17.1320192,28.67704 17.2251688,28.3614933 L18.2536814,25.13834 C18.628858,25.00748 18.9966214,24.8569587 19.3556822,24.6870986 L22.202061,26.3631383 C22.4911791,26.5336431 22.8560416,26.5065686 23.1171181,26.2954521 L23.1690111,26.2535511 C24.2062263,25.3352747 25.1857467,24.3538245 26.1017708,23.3140352 L26.1404488,23.2660103 C26.344153,23.0171828 26.3808971,22.6716608 26.2339207,22.3857671 L24.6739078,19.3753419 C24.8473142,19.0153157 25.0010593,18.6465869 25.1348207,18.2701226 L28.3322024,17.4414499 C28.6590315,17.3570033 28.8981905,17.0775559 28.9317115,16.7420257 L28.9317115,16.6840089 C29.0206709,15.2986976 29.0226048,13.9088739 28.9381578,12.522918 Z" id="Fill-1"></path>
        </g>
    </g>
</svg>