<?xml version="1.0" encoding="UTF-8"?>
<svg width="20px" height="20px" viewBox="0 0 20 20" version="1.1" xmlns="http://www.w3.org/2000/svg" xmlns:xlink="http://www.w3.org/1999/xlink">
    <!-- Generator: Sketch 51.1 (57501) - http://www.bohemiancoding.com/sketch -->
    <title>Icons/Misc/Info</title>
    <desc>Created with Sketch.</desc>
    <defs></defs>
    <g id="Icons/Misc/Info" stroke="none" stroke-width="1" fill="none" fill-rule="evenodd">
        <path d="M10.9999936,13.2553713 L10.9999936,8.25537133 L9.00000639,8.25537133 C8.44792458,8.25537133 7.9999489,8.70334415 7.9999489,9.25555016 C7.9999489,9.8075007 8.44792458,10.2554735 9.00000639,10.2554735 L9.00000639,13.2553713 C8.44792458,13.2553713 7.9999489,13.7034719 7.9999489,14.2554224 C7.9999489,14.807373 8.44792458,15.2553458 9.00000639,15.2553458 L10.9999936,15.2553458 C11.5519477,15.2553458 12.0000511,14.807373 12.0000511,14.2554224 C12.0000511,13.7034719 11.5519477,13.2553713 10.9999936,13.2553713 M9.93606734,4.46708224 C9.2662115,4.46708224 8.72256037,5.01072989 8.72256037,5.68058146 C8.72256037,6.35043303 9.2662115,6.89408068 9.93606734,6.89408068 C10.6060509,6.89408068 11.1495743,6.35043303 11.1495743,5.68058146 C11.1495743,5.01072989 10.6060509,4.46708224 9.93606734,4.46708224 M9.99993613,20 C4.47694656,20 0,15.5229543 0,10 C0,4.47691797 4.47694656,0 9.99993613,0 C15.5230534,0 20,4.47691797 20,10 C20,15.5229543 15.5230534,20 9.99993613,20" id="Fill-1" fill="#FF9900"></path>
    </g>
</svg>