<?xml version="1.0" encoding="UTF-8"?>
<svg width="30px" height="32px" viewBox="0 0 30 32" version="1.1" xmlns="http://www.w3.org/2000/svg" xmlns:xlink="http://www.w3.org/1999/xlink">
    <!-- Generator: Sketch 51.1 (57501) - http://www.bohemiancoding.com/sketch -->
    <title>Icons/Misc/Present</title>
    <desc>Created with Sketch.</desc>
    <defs></defs>
    <g id="Icons/Misc/Present" stroke="none" stroke-width="1" fill="none" fill-rule="evenodd">
        <path d="M2.10625559,14.2712302 L2.10625559,9.94681237 C2.10625559,9.6608382 2.34202739,9.42758099 2.63292272,9.42758099 L13.9489368,9.42758099 L13.9489368,14.7896474 L2.6320969,14.7896474 C2.34202739,14.7896474 2.10625559,14.5572044 2.10625559,14.2712302 M10.2637121,2.07651844 C12.6222559,2.07651844 13.5021678,5.48276586 13.8054504,7.31523945 C11.5038882,7.16746917 10.1751428,6.60305183 9.44098823,6.11903293 C8.58502512,5.5546156 8.11430734,4.81922438 8.11430734,4.04943486 C8.11492671,3.08017581 8.91865667,2.07651844 10.2637121,2.07651844 M19.7383525,2.07651844 C21.0836143,2.07651844 21.8873443,3.08017581 21.8873443,4.05004548 C21.8873443,4.81983501 21.4155942,5.5546156 20.5606634,6.11984709 C19.8265088,6.60366245 18.4977634,7.16828333 16.1955819,7.31585007 C16.498658,5.48276586 17.3798087,2.07651844 19.7383525,2.07651844 M27.8960154,9.94681237 L27.8960154,14.2712302 C27.8960154,14.5572044 27.6594178,14.7902581 27.3693483,14.7902581 L16.0539536,14.7902581 L16.0539536,9.42758099 L27.3701741,9.42758099 C27.6594178,9.42758099 27.8960154,9.66002404 27.8960154,9.94681237 M25.0013075,29.9242957 L16.0539536,29.9242957 L16.0539536,16.8647411 L25.5277682,16.8647411 L25.5277682,29.4044537 C25.5277682,29.6924633 25.2913771,29.9242957 25.0013075,29.9242957 M4.47450279,29.4050643 L4.47450279,16.8655553 L13.9483174,16.8655553 L13.9483174,29.9249063 L5.00096346,29.9249063 C4.71089395,29.9242957 4.47450279,29.6924633 4.47450279,29.4050643 M5.00096346,32 L25.0013075,32 C26.4522744,32 27.6319593,30.8357493 27.6319593,29.4050643 L27.6319593,16.8382808 C28.9592595,16.7061832 30,15.6123574 30,14.2706196 L30,9.94599821 C30,8.51612739 28.8199023,7.35187671 27.3693483,7.35187671 L22.3685913,7.35187671 C23.4052027,6.44713994 23.9927741,5.27739367 23.9927741,4.04943486 C23.9927741,1.77894248 22.1231161,0 19.7383525,0 C17.2381804,0 15.8132269,1.81903993 15.0008258,3.75654032 C14.1896635,1.81965055 12.7638841,0.000814161318 10.2637121,0.000814161318 C7.87832909,0.000814161318 6.00949694,1.77975664 6.00949694,4.05004548 C6.00949694,5.27861491 6.59644897,6.44775056 7.63306035,7.35248733 L2.6320969,7.35248733 C1.18113,7.35248733 0,8.51694155 0,9.94681237 L0,14.2712302 C0,15.6123574 1.04218567,16.7067938 2.36886656,16.839095 L2.36886656,29.4050643 C2.36886656,30.8357493 3.5497901,32 5.00096346,32" id="Fill-1" fill="#FF9900"></path>
    </g>
</svg>