<?xml version="1.0" encoding="UTF-8"?>
<svg width="20px" height="20px" viewBox="0 0 20 20" version="1.1" xmlns="http://www.w3.org/2000/svg" xmlns:xlink="http://www.w3.org/1999/xlink">
    <!-- Generator: Sketch 51.2 (57519) - http://www.bohemiancoding.com/sketch -->
    <title>Icons/Misc/Tool</title>
    <desc>Created with Sketch.</desc>
    <defs></defs>
    <g id="Icons/Misc/Tool" stroke="none" stroke-width="1" fill="none" fill-rule="evenodd">
        <path d="M15.5282684,1.30316803 C13.687139,0.649707478 11.5559994,1.05074555 10.0825482,2.52445468 C8.60884809,3.99791488 8.20781247,6.12881862 8.86126902,7.97020822 L1.6583108,15.1732105 C0.780563066,16.0509636 0.780563066,17.4639321 1.6583108,18.3416852 C2.53605853,19.2194383 3.9490183,19.2194383 4.82676604,18.3416852 L12.0297243,11.1386829 C13.8711026,11.7923923 16.0019933,11.3908564 17.4754445,9.9173962 C18.9491446,8.44393601 19.3504291,6.31303226 18.6967236,4.47164266 L16.5954563,6.57292286 C15.7177086,7.45067597 14.3044999,7.45067597 13.4270011,6.57292286 C12.5492533,5.69541869 12.5492533,4.28220134 13.4270011,3.40444823 L15.5282684,1.30316803 Z" id="Fill-1" stroke="#FF9900" stroke-width="2"></path>
    </g>
</svg>